<?xml version="1.0" standalone="no"?>
<!DOCTYPE svg PUBLIC "-//W3C//DTD SVG 20010904//EN"
 "http://www.w3.org/TR/2001/REC-SVG-20010904/DTD/svg10.dtd">
<svg version="1.0" xmlns="http://www.w3.org/2000/svg"
 width="225.000000pt" height="225.000000pt" viewBox="0 0 225.000000 225.000000"
 preserveAspectRatio="xMidYMid meet">

<g transform="translate(0.000000,225.000000) scale(0.100000,-0.100000)"
fill="#000000" stroke="none">
<path d="M641 1694 c-59 -13 -171 -56 -198 -77 -7 -5 -13 -25 -13 -43 l0 -34
-65 0 -65 0 0 -505 0 -505 828 2 827 3 0 500 0 500 -67 3 -68 3 0 39 c0 38 0
38 -74 69 -194 81 -379 79 -566 -5 l-57 -26 -52 26 c-116 60 -293 80 -430 50z
m312 -35 c37 -11 88 -29 113 -39 l44 -19 0 -475 0 -474 -76 30 c-179 69 -350
61 -564 -26 -13 -5 -15 50 -14 464 0 282 4 474 10 480 17 17 148 62 219 75 83
16 175 10 268 -16z m612 16 c48 -9 121 -29 161 -46 l74 -31 0 -475 c0 -449 -1
-475 -17 -467 -10 4 -56 21 -103 37 -75 27 -99 31 -200 31 -122 1 -189 -11
-279 -50 -29 -13 -55 -24 -57 -24 -2 0 -4 213 -4 474 l0 473 58 26 c82 36 140
51 268 66 6 0 51 -6 99 -14z m-1135 -616 c0 -247 2 -449 4 -449 2 0 33 14 70
30 93 42 176 60 285 60 105 0 187 -18 277 -61 l61 -29 44 21 c98 48 153 61
269 66 128 6 223 -13 320 -62 27 -14 52 -25 55 -25 3 0 5 203 5 450 l0 450 55
0 55 0 0 -475 0 -475 -805 0 -805 0 0 473 c0 261 2 476 4 478 2 2 27 2 55 1
l51 -4 0 -449z"/>
<path d="M670 1563 c-40 -8 -140 -55 -140 -66 0 -10 6 -9 95 24 90 34 234 31
331 -5 79 -29 84 -30 84 -17 0 4 -28 21 -62 36 -55 25 -77 29 -173 31 -60 1
-121 0 -135 -3z"/>
<path d="M625 1418 c-74 -28 -102 -44 -93 -54 4 -4 30 3 57 15 116 49 282 50
384 1 44 -21 67 -25 67 -11 0 4 -28 21 -62 37 -55 24 -78 28 -178 31 -101 3
-123 1 -175 -19z"/>
<path d="M617 1287 c-37 -13 -73 -29 -79 -35 -22 -22 2 -24 49 -4 114 48 246
53 359 12 92 -34 97 -35 92 -19 -2 8 -31 25 -64 38 -48 21 -80 26 -174 28
-100 3 -124 1 -183 -20z"/>
<path d="M703 1179 c-60 -10 -160 -46 -169 -60 -13 -22 7 -20 73 7 60 25 80
28 178 28 98 0 118 -3 178 -28 68 -28 100 -28 62 0 -56 41 -228 69 -322 53z"/>
<path d="M735 1054 c-11 -2 -45 -9 -75 -15 -61 -13 -130 -44 -130 -59 0 -14 6
-13 79 16 116 47 250 44 374 -9 50 -21 76 -15 42 9 -46 34 -230 71 -290 58z"/>
<path d="M696 919 c-65 -10 -166 -52 -166 -70 0 -6 7 -9 18 -6 9 4 51 18 92
33 66 23 86 26 165 22 66 -4 108 -12 156 -32 73 -29 79 -30 79 -16 0 13 -65
45 -115 58 -62 16 -164 20 -229 11z"/>
<path d="M1307 1547 c-38 -13 -76 -31 -85 -40 -24 -25 -1 -22 77 10 90 36 235
38 326 4 95 -35 98 -36 93 -20 -2 8 -31 25 -64 38 -47 20 -80 26 -169 28 -95
3 -119 0 -178 -20z"/>
<path d="M1330 1426 c-51 -14 -106 -41 -115 -56 -10 -16 23 -11 64 10 93 47
255 48 369 3 64 -25 94 -24 57 3 -11 8 -48 24 -83 34 -74 23 -220 26 -292 6z"/>
<path d="M1350 1303 c-36 -7 -140 -54 -140 -64 0 -13 23 -11 56 6 101 50 245
56 359 15 92 -32 95 -33 95 -21 0 14 -53 41 -115 57 -47 13 -199 17 -255 7z"/>
<path d="M1390 1178 c-68 -9 -180 -54 -180 -71 0 -10 7 -9 95 25 48 18 80 22
165 22 91 0 114 -4 171 -27 73 -30 79 -31 79 -17 0 18 -83 52 -159 66 -85 15
-82 15 -171 2z"/>
<path d="M1388 1049 c-70 -10 -170 -49 -176 -68 -5 -16 -4 -15 93 20 35 13 95
23 145 26 74 5 95 2 160 -21 41 -15 83 -29 93 -33 9 -3 17 0 17 6 0 19 -81 53
-159 67 -85 15 -92 15 -173 3z"/>
<path d="M1395 920 c-70 -8 -176 -49 -183 -69 -5 -16 -3 -15 93 20 105 38 261
36 345 -6 42 -21 70 -27 70 -16 0 13 -63 46 -115 59 -61 16 -144 20 -210 12z"/>
</g>
</svg>
